<?xml version="1.0" standalone="no"?>
<!DOCTYPE svg PUBLIC "-//W3C//DTD SVG 20010904//EN"
 "http://www.w3.org/TR/2001/REC-SVG-20010904/DTD/svg10.dtd">
<svg version="1.0" xmlns="http://www.w3.org/2000/svg"
 width="500.000000pt" height="500.000000pt" viewBox="0 0 500.000000 500.000000"
 preserveAspectRatio="xMidYMid meet">

<g transform="translate(0.000000,500.000000) scale(0.100000,-0.100000)"
fill="#000000" stroke="none">
<path d="M234 2710 c-23 -12 -52 -32 -64 -45 l-23 -25 25 0 c14 0 31 7 39 16
39 47 139 59 197 24 32 -20 52 -19 52 1 0 18 -84 49 -135 49 -31 0 -66 -8 -91
-20z"/>
<path d="M237 2625 c-17 -15 -22 -25 -14 -25 8 0 22 9 32 20 14 15 33 20 94
23 l76 3 -80 2 c-72 1 -83 -1 -108 -23z"/>
<path d="M370 2545 l-105 -105 51 0 c43 0 55 4 79 29 15 17 37 31 49 33 13 2
21 10 21 23 0 28 -39 27 -43 -1 -5 -36 -55 -76 -91 -72 l-32 3 85 90 84 90 16
-37 c9 -21 16 -56 16 -78 0 -29 4 -40 15 -40 11 0 15 11 15 43 0 42 -32 127
-47 127 -5 0 -55 -47 -113 -105z m90 -14 c0 -6 -4 -13 -10 -16 -5 -3 -10 1
-10 9 0 9 5 16 10 16 6 0 10 -4 10 -9z"/>
<path d="M60 2615 c-6 -8 -9 -19 -5 -25 8 -13 38 -13 51 -1 5 5 27 11 49 14
l40 4 -47 1 c-26 1 -50 7 -53 12 -9 14 -21 12 -35 -5z m30 -15 c0 -5 -4 -10
-10 -10 -5 0 -10 5 -10 10 0 6 5 10 10 10 6 0 10 -4 10 -10z"/>
<path d="M254 2579 c-16 -17 -39 -35 -52 -40 -28 -11 -26 -44 3 -44 13 0 21 8
23 21 6 43 66 81 117 75 10 -1 -155 -171 -166 -171 -12 0 -29 62 -29 106 0 32
-4 44 -15 44 -30 0 -13 -133 21 -170 12 -13 29 0 127 98 l112 112 -56 0 c-49
0 -59 -4 -85 -31z m-44 -65 c0 -8 -5 -12 -10 -9 -6 4 -8 11 -5 16 9 14 15 11
15 -7z"/>
<path d="M555 2460 c-3 -5 -34 -10 -69 -10 -54 0 -66 -3 -87 -26 -22 -23 -30
-25 -96 -23 -40 1 -76 -1 -80 -4 -3 -4 31 -7 77 -7 72 0 87 3 107 22 16 15 37
22 78 24 30 1 58 -2 61 -7 7 -12 41 -11 49 1 7 11 -12 40 -26 40 -4 0 -11 -4
-14 -10z m25 -20 c0 -5 -4 -10 -10 -10 -5 0 -10 5 -10 10 0 6 5 10 10 10 6 0
10 -4 10 -10z"/>
<path d="M455 2390 c-26 -42 -154 -64 -205 -35 -28 16 -50 19 -50 7 0 -11 56
-37 97 -46 47 -11 132 17 168 54 22 22 25 30 12 30 -8 0 -19 -5 -22 -10z"/>
</g>
</svg>
